# xmcd
# 
# Track frame offsets:
#     150
#     15885
#     47860
#     58715
#     92820
#     115625
#     128670
#     140895
#     157040
# 
# Disc length: 2395
# 
# Revision: 4
# Processed by: cddbd v1.5.2PL0 Copyright (c) Steve Scherf et al.
# Submitted via: BonkEnc v1.0.8
# 
DISCID=74095909
DTITLE=Eileen Huang - Longing
DYEAR=1995
DGENRE=New Age
TTITLE0=相望
TTITLE1=笑暈
TTITLE2=晨歌
TTITLE3=潺潺
TTITLE4=聽河
TTITLE5=回聲
TTITLE6=繁華
TTITLE7=夢城
TTITLE8=如洗
EXTD=
EXTT0=
EXTT1=
EXTT2=
EXTT3=
EXTT4=
EXTT5=
EXTT6=
EXTT7=
EXTT8=
PLAYORDER=
